<mxfile host="www.draw.io" modified="2019-11-01T01:58:25.438Z" agent="Mozilla/5.0 (Macintosh; Intel Mac OS X 10_14_6) AppleWebKit/605.1.15 (KHTML, like Gecko) Version/13.0.1 Safari/605.1.15" etag="pG4kOMKjPvMdgBkZavBf" version="12.1.9" type="github" pages="3">
  <diagram id="4OfXftk75SzX3CCM5KAg" name="Page-1">
    <mxGraphModel dx="932" dy="648" grid="1" gridSize="10" guides="1" tooltips="1" connect="1" arrows="1" fold="1" page="1" pageScale="1" pageWidth="850" pageHeight="1100" math="0" shadow="0">
      <root>
        <mxCell id="0"/>
        <mxCell id="1" parent="0"/>
        <mxCell id="jnK2DR1FTww_ajMCzkvB-4" value="PRODUCT&amp;nbsp;&lt;br&gt;" style="strokeWidth=2;whiteSpace=wrap;html=1;align=center;fontSize=14;" parent="1" vertex="1">
          <mxGeometry x="125" y="720" width="160" height="80" as="geometry"/>
        </mxCell>
        <mxCell id="jnK2DR1FTww_ajMCzkvB-7" value="CUSTOMER" style="strokeWidth=2;whiteSpace=wrap;html=1;align=center;fontSize=14;" parent="1" vertex="1">
          <mxGeometry x="582.5" y="230" width="120" height="100" as="geometry"/>
        </mxCell>
        <mxCell id="jnK2DR1FTww_ajMCzkvB-8" value="BRAND" style="strokeWidth=2;whiteSpace=wrap;html=1;align=center;fontSize=14;" parent="1" vertex="1">
          <mxGeometry x="140" y="220" width="130" height="100" as="geometry"/>
        </mxCell>
        <mxCell id="jnK2DR1FTww_ajMCzkvB-9" value="ORDER" style="strokeWidth=2;whiteSpace=wrap;html=1;align=center;fontSize=14;" parent="1" vertex="1">
          <mxGeometry x="563" y="720" width="160" height="83" as="geometry"/>
        </mxCell>
        <mxCell id="jnK2DR1FTww_ajMCzkvB-10" value="COMPRISES" style="shape=rhombus;strokeWidth=2;fontSize=17;perimeter=rhombusPerimeter;whiteSpace=wrap;html=1;align=center;fontSize=14;" parent="1" vertex="1">
          <mxGeometry x="360" y="720" width="120" height="82" as="geometry"/>
        </mxCell>
        <mxCell id="jnK2DR1FTww_ajMCzkvB-11" value="BUYS" style="shape=rhombus;strokeWidth=2;fontSize=17;perimeter=rhombusPerimeter;whiteSpace=wrap;html=1;align=center;fontSize=14;" parent="1" vertex="1">
          <mxGeometry x="588" y="480" width="110" height="80" as="geometry"/>
        </mxCell>
        <mxCell id="jnK2DR1FTww_ajMCzkvB-12" value="DISTRIBUTES" style="shape=rhombus;strokeWidth=2;fontSize=13;perimeter=rhombusPerimeter;whiteSpace=wrap;html=1;align=center;fontSize=14;" parent="1" vertex="1">
          <mxGeometry x="150" y="480" width="110" height="80" as="geometry"/>
        </mxCell>
        <mxCell id="jnK2DR1FTww_ajMCzkvB-13" value="Name&amp;nbsp;" style="ellipse;whiteSpace=wrap;html=1;" parent="1" vertex="1">
          <mxGeometry x="140" y="840" width="50" height="30" as="geometry"/>
        </mxCell>
        <mxCell id="jnK2DR1FTww_ajMCzkvB-15" value="Origin" style="ellipse;whiteSpace=wrap;html=1;" parent="1" vertex="1">
          <mxGeometry x="297.5" y="840" width="50" height="30" as="geometry"/>
        </mxCell>
        <mxCell id="jnK2DR1FTww_ajMCzkvB-16" value="Price" style="ellipse;whiteSpace=wrap;html=1;" parent="1" vertex="1">
          <mxGeometry x="350" y="840" width="50" height="30" as="geometry"/>
        </mxCell>
        <mxCell id="jnK2DR1FTww_ajMCzkvB-17" value="InStock" style="ellipse;whiteSpace=wrap;html=1;" parent="1" vertex="1">
          <mxGeometry x="250" y="887.5" width="55" height="35" as="geometry"/>
        </mxCell>
        <mxCell id="jnK2DR1FTww_ajMCzkvB-18" value="ProductId" style="ellipse;whiteSpace=wrap;html=1;fontStyle=5" parent="1" vertex="1">
          <mxGeometry x="50" y="840" width="60" height="30" as="geometry"/>
        </mxCell>
        <mxCell id="jnK2DR1FTww_ajMCzkvB-19" value="Description" style="ellipse;whiteSpace=wrap;html=1;" parent="1" vertex="1">
          <mxGeometry x="315" y="887.5" width="65" height="33" as="geometry"/>
        </mxCell>
        <mxCell id="jnK2DR1FTww_ajMCzkvB-20" value="ProductDiscount" style="ellipse;whiteSpace=wrap;html=1;" parent="1" vertex="1">
          <mxGeometry x="140" y="886.5" width="100" height="36" as="geometry"/>
        </mxCell>
        <mxCell id="jnK2DR1FTww_ajMCzkvB-23" value="Date" style="ellipse;whiteSpace=wrap;html=1;" parent="1" vertex="1">
          <mxGeometry x="722.5" y="850" width="50" height="30" as="geometry"/>
        </mxCell>
        <mxCell id="jnK2DR1FTww_ajMCzkvB-24" value="Quantity" style="ellipse;whiteSpace=wrap;html=1;" parent="1" vertex="1">
          <mxGeometry x="495" y="850.5" width="50" height="30" as="geometry"/>
        </mxCell>
        <mxCell id="jnK2DR1FTww_ajMCzkvB-25" value="CustomerId" style="ellipse;whiteSpace=wrap;html=1;fontStyle=5" parent="1" vertex="1">
          <mxGeometry x="465" y="160" width="80" height="30" as="geometry"/>
        </mxCell>
        <mxCell id="jnK2DR1FTww_ajMCzkvB-26" value="CardInformation" style="ellipse;whiteSpace=wrap;html=1;" parent="1" vertex="1">
          <mxGeometry x="747.5" y="940.5" width="97" height="39" as="geometry"/>
        </mxCell>
        <mxCell id="jnK2DR1FTww_ajMCzkvB-27" value="FirstName&amp;nbsp;" style="ellipse;whiteSpace=wrap;html=1;" parent="1" vertex="1">
          <mxGeometry x="607.5" y="160" width="70" height="30" as="geometry"/>
        </mxCell>
        <mxCell id="jnK2DR1FTww_ajMCzkvB-28" value="OrderId" style="ellipse;whiteSpace=wrap;html=1;fontStyle=5" parent="1" vertex="1">
          <mxGeometry x="440" y="850.5" width="50" height="30" as="geometry"/>
        </mxCell>
        <mxCell id="jnK2DR1FTww_ajMCzkvB-29" value="Year" style="ellipse;whiteSpace=wrap;html=1;" parent="1" vertex="1">
          <mxGeometry x="464" y="902" width="50" height="30" as="geometry"/>
        </mxCell>
        <mxCell id="jnK2DR1FTww_ajMCzkvB-30" value="Month" style="ellipse;whiteSpace=wrap;html=1;" parent="1" vertex="1">
          <mxGeometry x="785" y="850" width="50" height="30" as="geometry"/>
        </mxCell>
        <mxCell id="jnK2DR1FTww_ajMCzkvB-31" value="ShippingMethod&amp;nbsp;" style="ellipse;whiteSpace=wrap;html=1;" parent="1" vertex="1">
          <mxGeometry x="628.5" y="943" width="91" height="34" as="geometry"/>
        </mxCell>
        <mxCell id="jnK2DR1FTww_ajMCzkvB-33" value="LastName" style="ellipse;whiteSpace=wrap;html=1;" parent="1" vertex="1">
          <mxGeometry x="697.5" y="160" width="70" height="30" as="geometry"/>
        </mxCell>
        <mxCell id="jnK2DR1FTww_ajMCzkvB-39" value="Contact&amp;nbsp;" style="ellipse;whiteSpace=wrap;html=1;" parent="1" vertex="1">
          <mxGeometry x="550" y="120" width="65" height="30" as="geometry"/>
        </mxCell>
        <mxCell id="jnK2DR1FTww_ajMCzkvB-40" value="Password" style="ellipse;whiteSpace=wrap;html=1;" parent="1" vertex="1">
          <mxGeometry x="675" y="120" width="55" height="30" as="geometry"/>
        </mxCell>
        <mxCell id="jnK2DR1FTww_ajMCzkvB-41" value="Address" style="ellipse;whiteSpace=wrap;html=1;" parent="1" vertex="1">
          <mxGeometry x="480" y="120" width="50" height="30" as="geometry"/>
        </mxCell>
        <mxCell id="jnK2DR1FTww_ajMCzkvB-48" value="OrderDiscount" style="ellipse;whiteSpace=wrap;html=1;" parent="1" vertex="1">
          <mxGeometry x="673" y="901" width="93" height="32" as="geometry"/>
        </mxCell>
        <mxCell id="jnK2DR1FTww_ajMCzkvB-49" value="Tax" style="ellipse;whiteSpace=wrap;html=1;" parent="1" vertex="1">
          <mxGeometry x="600" y="902" width="50" height="30" as="geometry"/>
        </mxCell>
        <mxCell id="jnK2DR1FTww_ajMCzkvB-50" value="Total" style="ellipse;whiteSpace=wrap;html=1;" parent="1" vertex="1">
          <mxGeometry x="530" y="902" width="50" height="30" as="geometry"/>
        </mxCell>
        <mxCell id="jnK2DR1FTww_ajMCzkvB-51" value="ShippingFee" style="ellipse;whiteSpace=wrap;html=1;" parent="1" vertex="1">
          <mxGeometry x="540" y="941" width="70" height="40" as="geometry"/>
        </mxCell>
        <mxCell id="jnK2DR1FTww_ajMCzkvB-52" value="" style="endArrow=none;html=1;fontSize=13;exitX=0.5;exitY=0;exitDx=0;exitDy=0;entryX=0.5;entryY=1;entryDx=0;entryDy=0;" parent="1" source="jnK2DR1FTww_ajMCzkvB-18" target="jnK2DR1FTww_ajMCzkvB-4" edge="1">
          <mxGeometry width="50" height="50" relative="1" as="geometry">
            <mxPoint x="90" y="1040" as="sourcePoint"/>
            <mxPoint x="206" y="799" as="targetPoint"/>
          </mxGeometry>
        </mxCell>
        <mxCell id="jnK2DR1FTww_ajMCzkvB-53" value="" style="endArrow=none;html=1;fontSize=13;entryX=0.5;entryY=1;entryDx=0;entryDy=0;exitX=0.5;exitY=0;exitDx=0;exitDy=0;" parent="1" source="jnK2DR1FTww_ajMCzkvB-13" target="jnK2DR1FTww_ajMCzkvB-4" edge="1">
          <mxGeometry width="50" height="50" relative="1" as="geometry">
            <mxPoint x="130" y="850" as="sourcePoint"/>
            <mxPoint x="222.01999999999998" y="809.04" as="targetPoint"/>
          </mxGeometry>
        </mxCell>
        <mxCell id="jnK2DR1FTww_ajMCzkvB-54" value="" style="endArrow=none;html=1;fontSize=13;exitX=0.5;exitY=0;exitDx=0;exitDy=0;entryX=0.5;entryY=1;entryDx=0;entryDy=0;" parent="1" source="jnK2DR1FTww_ajMCzkvB-20" target="jnK2DR1FTww_ajMCzkvB-4" edge="1">
          <mxGeometry width="50" height="50" relative="1" as="geometry">
            <mxPoint x="140" y="860" as="sourcePoint"/>
            <mxPoint x="210" y="800" as="targetPoint"/>
          </mxGeometry>
        </mxCell>
        <mxCell id="jnK2DR1FTww_ajMCzkvB-55" value="" style="endArrow=none;html=1;fontSize=13;exitX=0.5;exitY=0;exitDx=0;exitDy=0;entryX=0.5;entryY=1;entryDx=0;entryDy=0;" parent="1" source="jnK2DR1FTww_ajMCzkvB-17" target="jnK2DR1FTww_ajMCzkvB-4" edge="1">
          <mxGeometry width="50" height="50" relative="1" as="geometry">
            <mxPoint x="200" y="900" as="sourcePoint"/>
            <mxPoint x="210" y="800" as="targetPoint"/>
          </mxGeometry>
        </mxCell>
        <mxCell id="jnK2DR1FTww_ajMCzkvB-56" value="" style="endArrow=none;html=1;fontSize=13;exitX=0.5;exitY=0;exitDx=0;exitDy=0;entryX=0.5;entryY=1;entryDx=0;entryDy=0;" parent="1" source="jnK2DR1FTww_ajMCzkvB-15" target="jnK2DR1FTww_ajMCzkvB-4" edge="1">
          <mxGeometry width="50" height="50" relative="1" as="geometry">
            <mxPoint x="160" y="880" as="sourcePoint"/>
            <mxPoint x="210" y="800" as="targetPoint"/>
          </mxGeometry>
        </mxCell>
        <mxCell id="jnK2DR1FTww_ajMCzkvB-57" value="" style="endArrow=none;html=1;fontSize=13;exitX=0;exitY=0;exitDx=0;exitDy=0;entryX=0.5;entryY=1;entryDx=0;entryDy=0;" parent="1" source="jnK2DR1FTww_ajMCzkvB-19" target="jnK2DR1FTww_ajMCzkvB-4" edge="1">
          <mxGeometry width="50" height="50" relative="1" as="geometry">
            <mxPoint x="170" y="890" as="sourcePoint"/>
            <mxPoint x="210" y="800" as="targetPoint"/>
          </mxGeometry>
        </mxCell>
        <mxCell id="jnK2DR1FTww_ajMCzkvB-58" value="" style="endArrow=none;html=1;fontSize=13;exitX=0.5;exitY=0;exitDx=0;exitDy=0;entryX=0.5;entryY=1;entryDx=0;entryDy=0;" parent="1" source="jnK2DR1FTww_ajMCzkvB-16" target="jnK2DR1FTww_ajMCzkvB-4" edge="1">
          <mxGeometry width="50" height="50" relative="1" as="geometry">
            <mxPoint x="300" y="850" as="sourcePoint"/>
            <mxPoint x="220" y="810" as="targetPoint"/>
          </mxGeometry>
        </mxCell>
        <mxCell id="jnK2DR1FTww_ajMCzkvB-61" value="" style="endArrow=none;html=1;fontSize=13;entryX=0.5;entryY=1;entryDx=0;entryDy=0;exitX=0.5;exitY=0;exitDx=0;exitDy=0;" parent="1" source="jnK2DR1FTww_ajMCzkvB-28" target="jnK2DR1FTww_ajMCzkvB-9" edge="1">
          <mxGeometry width="50" height="50" relative="1" as="geometry">
            <mxPoint x="90" y="1040" as="sourcePoint"/>
            <mxPoint x="140" y="990" as="targetPoint"/>
          </mxGeometry>
        </mxCell>
        <mxCell id="jnK2DR1FTww_ajMCzkvB-62" value="" style="endArrow=none;html=1;fontSize=13;entryX=0.5;entryY=1;entryDx=0;entryDy=0;exitX=0.5;exitY=0;exitDx=0;exitDy=0;" parent="1" source="jnK2DR1FTww_ajMCzkvB-29" target="jnK2DR1FTww_ajMCzkvB-9" edge="1">
          <mxGeometry width="50" height="50" relative="1" as="geometry">
            <mxPoint x="555" y="850" as="sourcePoint"/>
            <mxPoint x="670" y="805" as="targetPoint"/>
          </mxGeometry>
        </mxCell>
        <mxCell id="jnK2DR1FTww_ajMCzkvB-63" value="" style="endArrow=none;html=1;fontSize=13;exitX=0.5;exitY=0;exitDx=0;exitDy=0;entryX=0.5;entryY=1;entryDx=0;entryDy=0;" parent="1" source="jnK2DR1FTww_ajMCzkvB-49" target="jnK2DR1FTww_ajMCzkvB-9" edge="1">
          <mxGeometry width="50" height="50" relative="1" as="geometry">
            <mxPoint x="565" y="860" as="sourcePoint"/>
            <mxPoint x="660" y="800" as="targetPoint"/>
          </mxGeometry>
        </mxCell>
        <mxCell id="jnK2DR1FTww_ajMCzkvB-64" value="" style="endArrow=none;html=1;fontSize=13;entryX=0.5;entryY=1;entryDx=0;entryDy=0;exitX=0.5;exitY=0;exitDx=0;exitDy=0;" parent="1" source="jnK2DR1FTww_ajMCzkvB-49" target="jnK2DR1FTww_ajMCzkvB-9" edge="1">
          <mxGeometry width="50" height="50" relative="1" as="geometry">
            <mxPoint x="575" y="870" as="sourcePoint"/>
            <mxPoint x="690" y="825" as="targetPoint"/>
          </mxGeometry>
        </mxCell>
        <mxCell id="jnK2DR1FTww_ajMCzkvB-65" value="" style="endArrow=none;html=1;fontSize=13;entryX=0.5;entryY=1;entryDx=0;entryDy=0;exitX=0.5;exitY=0;exitDx=0;exitDy=0;" parent="1" source="jnK2DR1FTww_ajMCzkvB-24" target="jnK2DR1FTww_ajMCzkvB-9" edge="1">
          <mxGeometry width="50" height="50" relative="1" as="geometry">
            <mxPoint x="640" y="830" as="sourcePoint"/>
            <mxPoint x="660" y="800" as="targetPoint"/>
          </mxGeometry>
        </mxCell>
        <mxCell id="jnK2DR1FTww_ajMCzkvB-66" value="" style="endArrow=none;html=1;fontSize=13;entryX=0.5;entryY=1;entryDx=0;entryDy=0;exitX=0.5;exitY=0;exitDx=0;exitDy=0;" parent="1" source="jnK2DR1FTww_ajMCzkvB-23" target="jnK2DR1FTww_ajMCzkvB-9" edge="1">
          <mxGeometry width="50" height="50" relative="1" as="geometry">
            <mxPoint x="595" y="890" as="sourcePoint"/>
            <mxPoint x="710" y="845" as="targetPoint"/>
          </mxGeometry>
        </mxCell>
        <mxCell id="jnK2DR1FTww_ajMCzkvB-68" value="" style="endArrow=none;html=1;fontSize=13;entryX=0.5;entryY=1;entryDx=0;entryDy=0;exitX=0.382;exitY=0.017;exitDx=0;exitDy=0;exitPerimeter=0;" parent="1" source="jnK2DR1FTww_ajMCzkvB-48" target="jnK2DR1FTww_ajMCzkvB-9" edge="1">
          <mxGeometry width="50" height="50" relative="1" as="geometry">
            <mxPoint x="605" y="900" as="sourcePoint"/>
            <mxPoint x="720" y="855" as="targetPoint"/>
          </mxGeometry>
        </mxCell>
        <mxCell id="jnK2DR1FTww_ajMCzkvB-69" value="" style="endArrow=none;html=1;fontSize=13;entryX=0.5;entryY=1;entryDx=0;entryDy=0;exitX=0.5;exitY=0;exitDx=0;exitDy=0;" parent="1" source="jnK2DR1FTww_ajMCzkvB-30" target="jnK2DR1FTww_ajMCzkvB-9" edge="1">
          <mxGeometry width="50" height="50" relative="1" as="geometry">
            <mxPoint x="615" y="910" as="sourcePoint"/>
            <mxPoint x="730" y="865" as="targetPoint"/>
          </mxGeometry>
        </mxCell>
        <mxCell id="jnK2DR1FTww_ajMCzkvB-70" value="" style="endArrow=none;html=1;fontSize=13;entryX=0.5;entryY=1;entryDx=0;entryDy=0;exitX=0.5;exitY=0;exitDx=0;exitDy=0;" parent="1" source="jnK2DR1FTww_ajMCzkvB-50" target="jnK2DR1FTww_ajMCzkvB-9" edge="1">
          <mxGeometry width="50" height="50" relative="1" as="geometry">
            <mxPoint x="625" y="920" as="sourcePoint"/>
            <mxPoint x="740" y="875" as="targetPoint"/>
          </mxGeometry>
        </mxCell>
        <mxCell id="0iS4P3OPMXxAXRuDkmN--1" value="" style="endArrow=none;html=1;fontSize=13;entryX=0.5;entryY=0;entryDx=0;entryDy=0;exitX=0.5;exitY=1;exitDx=0;exitDy=0;" parent="1" source="jnK2DR1FTww_ajMCzkvB-25" target="jnK2DR1FTww_ajMCzkvB-7" edge="1">
          <mxGeometry width="50" height="50" relative="1" as="geometry">
            <mxPoint x="515" y="437.5" as="sourcePoint"/>
            <mxPoint x="630" y="392.5" as="targetPoint"/>
          </mxGeometry>
        </mxCell>
        <mxCell id="0iS4P3OPMXxAXRuDkmN--2" value="" style="endArrow=none;html=1;fontSize=13;exitX=0.5;exitY=1;exitDx=0;exitDy=0;entryX=0.5;entryY=0;entryDx=0;entryDy=0;" parent="1" source="jnK2DR1FTww_ajMCzkvB-27" target="jnK2DR1FTww_ajMCzkvB-7" edge="1">
          <mxGeometry width="50" height="50" relative="1" as="geometry">
            <mxPoint x="540" y="200" as="sourcePoint"/>
            <mxPoint x="630" y="230" as="targetPoint"/>
          </mxGeometry>
        </mxCell>
        <mxCell id="0iS4P3OPMXxAXRuDkmN--3" value="" style="endArrow=none;html=1;fontSize=13;entryX=0.5;entryY=0;entryDx=0;entryDy=0;exitX=1;exitY=0.5;exitDx=0;exitDy=0;" parent="1" source="jnK2DR1FTww_ajMCzkvB-41" target="jnK2DR1FTww_ajMCzkvB-7" edge="1">
          <mxGeometry width="50" height="50" relative="1" as="geometry">
            <mxPoint x="550" y="210" as="sourcePoint"/>
            <mxPoint x="650" y="250" as="targetPoint"/>
          </mxGeometry>
        </mxCell>
        <mxCell id="0iS4P3OPMXxAXRuDkmN--4" value="" style="endArrow=none;html=1;fontSize=13;entryX=0.5;entryY=0;entryDx=0;entryDy=0;exitX=0.5;exitY=1;exitDx=0;exitDy=0;" parent="1" source="jnK2DR1FTww_ajMCzkvB-39" target="jnK2DR1FTww_ajMCzkvB-7" edge="1">
          <mxGeometry width="50" height="50" relative="1" as="geometry">
            <mxPoint x="560" y="220" as="sourcePoint"/>
            <mxPoint x="660" y="260" as="targetPoint"/>
          </mxGeometry>
        </mxCell>
        <mxCell id="0iS4P3OPMXxAXRuDkmN--5" value="" style="endArrow=none;html=1;fontSize=13;entryX=0.5;entryY=0;entryDx=0;entryDy=0;exitX=0.5;exitY=1;exitDx=0;exitDy=0;" parent="1" source="jnK2DR1FTww_ajMCzkvB-40" target="jnK2DR1FTww_ajMCzkvB-7" edge="1">
          <mxGeometry width="50" height="50" relative="1" as="geometry">
            <mxPoint x="570" y="230" as="sourcePoint"/>
            <mxPoint x="670" y="270" as="targetPoint"/>
          </mxGeometry>
        </mxCell>
        <mxCell id="0iS4P3OPMXxAXRuDkmN--6" value="" style="endArrow=none;html=1;fontSize=13;exitX=0.5;exitY=1;exitDx=0;exitDy=0;entryX=0.5;entryY=0;entryDx=0;entryDy=0;" parent="1" source="jnK2DR1FTww_ajMCzkvB-33" target="jnK2DR1FTww_ajMCzkvB-7" edge="1">
          <mxGeometry width="50" height="50" relative="1" as="geometry">
            <mxPoint x="580" y="240" as="sourcePoint"/>
            <mxPoint x="630" y="230" as="targetPoint"/>
          </mxGeometry>
        </mxCell>
        <mxCell id="0iS4P3OPMXxAXRuDkmN--15" value="BrandId" style="ellipse;whiteSpace=wrap;html=1;fontStyle=5" parent="1" vertex="1">
          <mxGeometry x="120" y="160" width="50" height="30" as="geometry"/>
        </mxCell>
        <mxCell id="0iS4P3OPMXxAXRuDkmN--16" value="Location" style="ellipse;whiteSpace=wrap;html=1;" parent="1" vertex="1">
          <mxGeometry x="237.5" y="160" width="60" height="30" as="geometry"/>
        </mxCell>
        <mxCell id="0iS4P3OPMXxAXRuDkmN--19" value="" style="endArrow=none;html=1;fontSize=13;entryX=0.5;entryY=0;entryDx=0;entryDy=0;exitX=0.5;exitY=1;exitDx=0;exitDy=0;" parent="1" source="0iS4P3OPMXxAXRuDkmN--15" target="jnK2DR1FTww_ajMCzkvB-8" edge="1">
          <mxGeometry width="50" height="50" relative="1" as="geometry">
            <mxPoint x="515" y="200" as="sourcePoint"/>
            <mxPoint x="640" y="240" as="targetPoint"/>
          </mxGeometry>
        </mxCell>
        <mxCell id="0iS4P3OPMXxAXRuDkmN--20" value="" style="endArrow=none;html=1;fontSize=13;entryX=0.5;entryY=1;entryDx=0;entryDy=0;exitX=0.5;exitY=0;exitDx=0;exitDy=0;" parent="1" source="jnK2DR1FTww_ajMCzkvB-8" target="0iS4P3OPMXxAXRuDkmN--16" edge="1">
          <mxGeometry width="50" height="50" relative="1" as="geometry">
            <mxPoint x="155" y="200" as="sourcePoint"/>
            <mxPoint x="215" y="230" as="targetPoint"/>
          </mxGeometry>
        </mxCell>
        <mxCell id="0iS4P3OPMXxAXRuDkmN--21" value="" style="endArrow=none;html=1;fontSize=13;entryX=0.5;entryY=1;entryDx=0;entryDy=0;exitX=0.5;exitY=0;exitDx=0;exitDy=0;" parent="1" source="jnK2DR1FTww_ajMCzkvB-4" target="jnK2DR1FTww_ajMCzkvB-12" edge="1">
          <mxGeometry width="50" height="50" relative="1" as="geometry">
            <mxPoint x="80" y="1040" as="sourcePoint"/>
            <mxPoint x="130" y="990" as="targetPoint"/>
          </mxGeometry>
        </mxCell>
        <mxCell id="0iS4P3OPMXxAXRuDkmN--22" value="" style="endArrow=none;html=1;fontSize=13;entryX=0.5;entryY=1;entryDx=0;entryDy=0;exitX=0.5;exitY=0;exitDx=0;exitDy=0;" parent="1" source="jnK2DR1FTww_ajMCzkvB-12" target="jnK2DR1FTww_ajMCzkvB-8" edge="1">
          <mxGeometry width="50" height="50" relative="1" as="geometry">
            <mxPoint x="90" y="570" as="sourcePoint"/>
            <mxPoint x="140" y="440" as="targetPoint"/>
          </mxGeometry>
        </mxCell>
        <mxCell id="0iS4P3OPMXxAXRuDkmN--23" value="" style="endArrow=none;html=1;fontSize=13;entryX=0;entryY=0.5;entryDx=0;entryDy=0;exitX=1;exitY=0.5;exitDx=0;exitDy=0;" parent="1" source="jnK2DR1FTww_ajMCzkvB-4" target="jnK2DR1FTww_ajMCzkvB-10" edge="1">
          <mxGeometry width="50" height="50" relative="1" as="geometry">
            <mxPoint x="80" y="1040" as="sourcePoint"/>
            <mxPoint x="130" y="990" as="targetPoint"/>
          </mxGeometry>
        </mxCell>
        <mxCell id="0iS4P3OPMXxAXRuDkmN--24" value="" style="endArrow=none;html=1;fontSize=13;exitX=1;exitY=0.5;exitDx=0;exitDy=0;" parent="1" source="jnK2DR1FTww_ajMCzkvB-10" target="jnK2DR1FTww_ajMCzkvB-9" edge="1">
          <mxGeometry width="50" height="50" relative="1" as="geometry">
            <mxPoint x="80" y="1040" as="sourcePoint"/>
            <mxPoint x="570" y="760" as="targetPoint"/>
          </mxGeometry>
        </mxCell>
        <mxCell id="0iS4P3OPMXxAXRuDkmN--25" value="" style="endArrow=none;html=1;fontSize=13;entryX=0.5;entryY=1;entryDx=0;entryDy=0;exitX=0.5;exitY=0;exitDx=0;exitDy=0;" parent="1" source="jnK2DR1FTww_ajMCzkvB-9" target="jnK2DR1FTww_ajMCzkvB-11" edge="1">
          <mxGeometry width="50" height="50" relative="1" as="geometry">
            <mxPoint x="360" y="620" as="sourcePoint"/>
            <mxPoint x="460" y="630" as="targetPoint"/>
          </mxGeometry>
        </mxCell>
        <mxCell id="0iS4P3OPMXxAXRuDkmN--28" value="" style="endArrow=none;html=1;fontSize=13;exitX=0.5;exitY=1;exitDx=0;exitDy=0;entryX=0.5;entryY=0;entryDx=0;entryDy=0;" parent="1" source="jnK2DR1FTww_ajMCzkvB-7" target="jnK2DR1FTww_ajMCzkvB-11" edge="1">
          <mxGeometry width="50" height="50" relative="1" as="geometry">
            <mxPoint x="470" y="435" as="sourcePoint"/>
            <mxPoint x="560" y="460" as="targetPoint"/>
          </mxGeometry>
        </mxCell>
        <mxCell id="0iS4P3OPMXxAXRuDkmN--29" value="" style="endArrow=none;html=1;fontSize=13;entryX=0.5;entryY=1;entryDx=0;entryDy=0;exitX=0.5;exitY=0;exitDx=0;exitDy=0;" parent="1" source="jnK2DR1FTww_ajMCzkvB-51" target="jnK2DR1FTww_ajMCzkvB-9" edge="1">
          <mxGeometry width="50" height="50" relative="1" as="geometry">
            <mxPoint x="701.51" y="898.01" as="sourcePoint"/>
            <mxPoint x="653" y="813" as="targetPoint"/>
          </mxGeometry>
        </mxCell>
        <mxCell id="0iS4P3OPMXxAXRuDkmN--30" value="" style="endArrow=none;html=1;fontSize=13;entryX=0.5;entryY=1;entryDx=0;entryDy=0;exitX=0.5;exitY=0;exitDx=0;exitDy=0;" parent="1" source="jnK2DR1FTww_ajMCzkvB-26" target="jnK2DR1FTww_ajMCzkvB-9" edge="1">
          <mxGeometry width="50" height="50" relative="1" as="geometry">
            <mxPoint x="711.51" y="908.01" as="sourcePoint"/>
            <mxPoint x="663" y="823" as="targetPoint"/>
          </mxGeometry>
        </mxCell>
        <mxCell id="0iS4P3OPMXxAXRuDkmN--31" value="" style="endArrow=none;html=1;fontSize=13;entryX=0.5;entryY=1;entryDx=0;entryDy=0;exitX=0.5;exitY=0;exitDx=0;exitDy=0;" parent="1" source="jnK2DR1FTww_ajMCzkvB-31" target="jnK2DR1FTww_ajMCzkvB-9" edge="1">
          <mxGeometry width="50" height="50" relative="1" as="geometry">
            <mxPoint x="721.51" y="918.01" as="sourcePoint"/>
            <mxPoint x="673" y="833" as="targetPoint"/>
          </mxGeometry>
        </mxCell>
        <mxCell id="0iS4P3OPMXxAXRuDkmN--36" value="(1,n)" style="text;html=1;strokeColor=none;fillColor=none;align=center;verticalAlign=middle;whiteSpace=wrap;rounded=0;fontSize=18;fontStyle=1" parent="1" vertex="1">
          <mxGeometry x="137.5" y="690" width="65" height="20" as="geometry"/>
        </mxCell>
        <mxCell id="0iS4P3OPMXxAXRuDkmN--37" value="(1,1)" style="text;html=1;strokeColor=none;fillColor=none;align=center;verticalAlign=middle;whiteSpace=wrap;rounded=0;fontSize=18;fontStyle=1" parent="1" vertex="1">
          <mxGeometry x="137.5" y="325" width="65" height="20" as="geometry"/>
        </mxCell>
        <mxCell id="0iS4P3OPMXxAXRuDkmN--38" value="(1,n)" style="text;html=1;strokeColor=none;fillColor=none;align=center;verticalAlign=middle;whiteSpace=wrap;rounded=0;fontSize=18;fontStyle=1" parent="1" vertex="1">
          <mxGeometry x="645" y="690" width="65" height="20" as="geometry"/>
        </mxCell>
        <mxCell id="0iS4P3OPMXxAXRuDkmN--39" value="(1,1)" style="text;html=1;strokeColor=none;fillColor=none;align=center;verticalAlign=middle;whiteSpace=wrap;rounded=0;fontSize=18;fontStyle=1" parent="1" vertex="1">
          <mxGeometry x="640.5" y="335" width="65" height="20" as="geometry"/>
        </mxCell>
        <mxCell id="0iS4P3OPMXxAXRuDkmN--40" value="(1,n)" style="text;html=1;strokeColor=none;fillColor=none;align=center;verticalAlign=middle;whiteSpace=wrap;rounded=0;fontSize=18;fontStyle=1" parent="1" vertex="1">
          <mxGeometry x="489" y="730" width="65" height="20" as="geometry"/>
        </mxCell>
        <mxCell id="0iS4P3OPMXxAXRuDkmN--41" value="(1,n)" style="text;html=1;strokeColor=none;fillColor=none;align=center;verticalAlign=middle;whiteSpace=wrap;rounded=0;fontSize=18;fontStyle=1" parent="1" vertex="1">
          <mxGeometry x="285" y="730" width="65" height="20" as="geometry"/>
        </mxCell>
        <mxCell id="0iS4P3OPMXxAXRuDkmN--46" value="Category" style="ellipse;shape=doubleEllipse;margin=10;strokeWidth=2;fontSize=14;whiteSpace=wrap;html=1;align=center;" parent="1" vertex="1">
          <mxGeometry x="22.5" y="884.5" width="100" height="40" as="geometry"/>
        </mxCell>
        <mxCell id="0iS4P3OPMXxAXRuDkmN--47" value="" style="endArrow=none;html=1;fontSize=13;exitX=0.5;exitY=0;exitDx=0;exitDy=0;entryX=0.5;entryY=1;entryDx=0;entryDy=0;" parent="1" source="0iS4P3OPMXxAXRuDkmN--46" target="jnK2DR1FTww_ajMCzkvB-4" edge="1">
          <mxGeometry width="50" height="50" relative="1" as="geometry">
            <mxPoint x="190" y="896.5" as="sourcePoint"/>
            <mxPoint x="215" y="810" as="targetPoint"/>
          </mxGeometry>
        </mxCell>
        <mxCell id="dp1j2dgFJNhXF5AT_NjH-3" value="" style="endArrow=none;html=1;fontSize=18;exitX=0.5;exitY=0;exitDx=0;exitDy=0;" parent="1" source="dp1j2dgFJNhXF5AT_NjH-4" edge="1">
          <mxGeometry width="50" height="50" relative="1" as="geometry">
            <mxPoint x="470" y="1010" as="sourcePoint"/>
            <mxPoint x="640" y="810" as="targetPoint"/>
          </mxGeometry>
        </mxCell>
        <mxCell id="dp1j2dgFJNhXF5AT_NjH-4" value="TotalPay" style="ellipse;whiteSpace=wrap;html=1;" parent="1" vertex="1">
          <mxGeometry x="460" y="943" width="70" height="40" as="geometry"/>
        </mxCell>
      </root>
    </mxGraphModel>
  </diagram>
  <diagram id="LDcTMuFV80xHcNfjHqND" name="Page-2">
    <mxGraphModel dx="1632" dy="1092" grid="1" gridSize="10" guides="1" tooltips="1" connect="1" arrows="1" fold="1" page="1" pageScale="1" pageWidth="850" pageHeight="1100" math="0" shadow="0">
      <root>
        <mxCell id="--3i5PdiJ5yU9r6fGvb7-0"/>
        <mxCell id="--3i5PdiJ5yU9r6fGvb7-1" parent="--3i5PdiJ5yU9r6fGvb7-0"/>
        <mxCell id="SbhkbPOQoYLZe-Uqvmme-0" value="Manager" style="swimlane;fontStyle=0;childLayout=stackLayout;horizontal=1;startSize=26;fillColor=#e0e0e0;horizontalStack=0;resizeParent=1;resizeParentMax=0;resizeLast=0;collapsible=1;marginBottom=0;swimlaneFillColor=#ffffff;align=center;fontSize=14;" parent="--3i5PdiJ5yU9r6fGvb7-1" vertex="1">
          <mxGeometry x="150" y="30" width="160" height="210" as="geometry"/>
        </mxCell>
        <mxCell id="SbhkbPOQoYLZe-Uqvmme-1" value="ManagerId" style="shape=partialRectangle;top=0;left=0;right=0;bottom=1;align=left;verticalAlign=middle;fillColor=none;spacingLeft=34;spacingRight=4;overflow=hidden;rotatable=0;points=[[0,0.5],[1,0.5]];portConstraint=eastwest;dropTarget=0;fontStyle=5;fontSize=12;" parent="SbhkbPOQoYLZe-Uqvmme-0" vertex="1">
          <mxGeometry y="26" width="160" height="30" as="geometry"/>
        </mxCell>
        <mxCell id="SbhkbPOQoYLZe-Uqvmme-2" value="PK" style="shape=partialRectangle;top=0;left=0;bottom=0;fillColor=none;align=left;verticalAlign=middle;spacingLeft=4;spacingRight=4;overflow=hidden;rotatable=0;points=[];portConstraint=eastwest;part=1;fontSize=12;" parent="SbhkbPOQoYLZe-Uqvmme-1" vertex="1" connectable="0">
          <mxGeometry width="30" height="30" as="geometry"/>
        </mxCell>
        <mxCell id="SbhkbPOQoYLZe-Uqvmme-3" value="Name" style="shape=partialRectangle;top=0;left=0;right=0;bottom=0;align=left;verticalAlign=top;fillColor=none;spacingLeft=34;spacingRight=4;overflow=hidden;rotatable=0;points=[[0,0.5],[1,0.5]];portConstraint=eastwest;dropTarget=0;fontSize=12;" parent="SbhkbPOQoYLZe-Uqvmme-0" vertex="1">
          <mxGeometry y="56" width="160" height="24" as="geometry"/>
        </mxCell>
        <mxCell id="SbhkbPOQoYLZe-Uqvmme-4" value="" style="shape=partialRectangle;top=0;left=0;bottom=0;fillColor=none;align=left;verticalAlign=top;spacingLeft=4;spacingRight=4;overflow=hidden;rotatable=0;points=[];portConstraint=eastwest;part=1;fontSize=12;" parent="SbhkbPOQoYLZe-Uqvmme-3" vertex="1" connectable="0">
          <mxGeometry width="30" height="24" as="geometry"/>
        </mxCell>
        <mxCell id="R3hvSRgiidc4G_vSHDlR-2" value="Username" style="shape=partialRectangle;top=0;left=0;right=0;bottom=0;align=left;verticalAlign=top;fillColor=none;spacingLeft=34;spacingRight=4;overflow=hidden;rotatable=0;points=[[0,0.5],[1,0.5]];portConstraint=eastwest;dropTarget=0;fontSize=12;" vertex="1" parent="SbhkbPOQoYLZe-Uqvmme-0">
          <mxGeometry y="80" width="160" height="26" as="geometry"/>
        </mxCell>
        <mxCell id="R3hvSRgiidc4G_vSHDlR-3" value="" style="shape=partialRectangle;top=0;left=0;bottom=0;fillColor=none;align=left;verticalAlign=top;spacingLeft=4;spacingRight=4;overflow=hidden;rotatable=0;points=[];portConstraint=eastwest;part=1;fontSize=12;" vertex="1" connectable="0" parent="R3hvSRgiidc4G_vSHDlR-2">
          <mxGeometry width="30" height="26" as="geometry"/>
        </mxCell>
        <mxCell id="R3hvSRgiidc4G_vSHDlR-0" value="Password" style="shape=partialRectangle;top=0;left=0;right=0;bottom=0;align=left;verticalAlign=top;fillColor=none;spacingLeft=34;spacingRight=4;overflow=hidden;rotatable=0;points=[[0,0.5],[1,0.5]];portConstraint=eastwest;dropTarget=0;fontSize=12;" vertex="1" parent="SbhkbPOQoYLZe-Uqvmme-0">
          <mxGeometry y="106" width="160" height="26" as="geometry"/>
        </mxCell>
        <mxCell id="R3hvSRgiidc4G_vSHDlR-1" value="" style="shape=partialRectangle;top=0;left=0;bottom=0;fillColor=none;align=left;verticalAlign=top;spacingLeft=4;spacingRight=4;overflow=hidden;rotatable=0;points=[];portConstraint=eastwest;part=1;fontSize=12;" vertex="1" connectable="0" parent="R3hvSRgiidc4G_vSHDlR-0">
          <mxGeometry width="30" height="26" as="geometry"/>
        </mxCell>
        <mxCell id="R3hvSRgiidc4G_vSHDlR-4" value="Address" style="shape=partialRectangle;top=0;left=0;right=0;bottom=0;align=left;verticalAlign=top;fillColor=none;spacingLeft=34;spacingRight=4;overflow=hidden;rotatable=0;points=[[0,0.5],[1,0.5]];portConstraint=eastwest;dropTarget=0;fontSize=12;" vertex="1" parent="SbhkbPOQoYLZe-Uqvmme-0">
          <mxGeometry y="132" width="160" height="26" as="geometry"/>
        </mxCell>
        <mxCell id="R3hvSRgiidc4G_vSHDlR-5" value="" style="shape=partialRectangle;top=0;left=0;bottom=0;fillColor=none;align=left;verticalAlign=top;spacingLeft=4;spacingRight=4;overflow=hidden;rotatable=0;points=[];portConstraint=eastwest;part=1;fontSize=12;" vertex="1" connectable="0" parent="R3hvSRgiidc4G_vSHDlR-4">
          <mxGeometry width="30" height="26" as="geometry"/>
        </mxCell>
        <mxCell id="R3hvSRgiidc4G_vSHDlR-6" value="Contact" style="shape=partialRectangle;top=0;left=0;right=0;bottom=0;align=left;verticalAlign=top;fillColor=none;spacingLeft=34;spacingRight=4;overflow=hidden;rotatable=0;points=[[0,0.5],[1,0.5]];portConstraint=eastwest;dropTarget=0;fontSize=12;" vertex="1" parent="SbhkbPOQoYLZe-Uqvmme-0">
          <mxGeometry y="158" width="160" height="26" as="geometry"/>
        </mxCell>
        <mxCell id="R3hvSRgiidc4G_vSHDlR-7" value="" style="shape=partialRectangle;top=0;left=0;bottom=0;fillColor=none;align=left;verticalAlign=top;spacingLeft=4;spacingRight=4;overflow=hidden;rotatable=0;points=[];portConstraint=eastwest;part=1;fontSize=12;" vertex="1" connectable="0" parent="R3hvSRgiidc4G_vSHDlR-6">
          <mxGeometry width="30" height="26" as="geometry"/>
        </mxCell>
        <mxCell id="R3hvSRgiidc4G_vSHDlR-10" value="Email" style="shape=partialRectangle;top=0;left=0;right=0;bottom=0;align=left;verticalAlign=top;fillColor=none;spacingLeft=34;spacingRight=4;overflow=hidden;rotatable=0;points=[[0,0.5],[1,0.5]];portConstraint=eastwest;dropTarget=0;fontSize=12;" vertex="1" parent="SbhkbPOQoYLZe-Uqvmme-0">
          <mxGeometry y="184" width="160" height="26" as="geometry"/>
        </mxCell>
        <mxCell id="R3hvSRgiidc4G_vSHDlR-11" value="" style="shape=partialRectangle;top=0;left=0;bottom=0;fillColor=none;align=left;verticalAlign=top;spacingLeft=4;spacingRight=4;overflow=hidden;rotatable=0;points=[];portConstraint=eastwest;part=1;fontSize=12;" vertex="1" connectable="0" parent="R3hvSRgiidc4G_vSHDlR-10">
          <mxGeometry width="30" height="26" as="geometry"/>
        </mxCell>
        <mxCell id="SbhkbPOQoYLZe-Uqvmme-11" value="Product" style="swimlane;fontStyle=0;childLayout=stackLayout;horizontal=1;startSize=26;fillColor=#e0e0e0;horizontalStack=0;resizeParent=1;resizeParentMax=0;resizeLast=0;collapsible=1;marginBottom=0;swimlaneFillColor=#ffffff;align=center;fontSize=14;" parent="--3i5PdiJ5yU9r6fGvb7-1" vertex="1">
          <mxGeometry x="140" y="550" width="160" height="264" as="geometry"/>
        </mxCell>
        <mxCell id="SbhkbPOQoYLZe-Uqvmme-12" value="ProductId" style="shape=partialRectangle;top=0;left=0;right=0;bottom=1;align=left;verticalAlign=middle;fillColor=none;spacingLeft=34;spacingRight=4;overflow=hidden;rotatable=0;points=[[0,0.5],[1,0.5]];portConstraint=eastwest;dropTarget=0;fontStyle=5;fontSize=12;" parent="SbhkbPOQoYLZe-Uqvmme-11" vertex="1">
          <mxGeometry y="26" width="160" height="30" as="geometry"/>
        </mxCell>
        <mxCell id="SbhkbPOQoYLZe-Uqvmme-13" value="PK" style="shape=partialRectangle;top=0;left=0;bottom=0;fillColor=none;align=left;verticalAlign=middle;spacingLeft=4;spacingRight=4;overflow=hidden;rotatable=0;points=[];portConstraint=eastwest;part=1;fontSize=12;" parent="SbhkbPOQoYLZe-Uqvmme-12" vertex="1" connectable="0">
          <mxGeometry width="30" height="30" as="geometry"/>
        </mxCell>
        <mxCell id="SbhkbPOQoYLZe-Uqvmme-16" value="Name" style="shape=partialRectangle;top=0;left=0;right=0;bottom=0;align=left;verticalAlign=top;fillColor=none;spacingLeft=34;spacingRight=4;overflow=hidden;rotatable=0;points=[[0,0.5],[1,0.5]];portConstraint=eastwest;dropTarget=0;fontSize=12;" parent="SbhkbPOQoYLZe-Uqvmme-11" vertex="1">
          <mxGeometry y="56" width="160" height="26" as="geometry"/>
        </mxCell>
        <mxCell id="SbhkbPOQoYLZe-Uqvmme-17" value="" style="shape=partialRectangle;top=0;left=0;bottom=0;fillColor=none;align=left;verticalAlign=top;spacingLeft=4;spacingRight=4;overflow=hidden;rotatable=0;points=[];portConstraint=eastwest;part=1;fontSize=12;" parent="SbhkbPOQoYLZe-Uqvmme-16" vertex="1" connectable="0">
          <mxGeometry width="30" height="26" as="geometry"/>
        </mxCell>
        <mxCell id="SbhkbPOQoYLZe-Uqvmme-51" value="Origin" style="shape=partialRectangle;top=0;left=0;right=0;bottom=0;align=left;verticalAlign=top;fillColor=none;spacingLeft=34;spacingRight=4;overflow=hidden;rotatable=0;points=[[0,0.5],[1,0.5]];portConstraint=eastwest;dropTarget=0;fontSize=12;" parent="SbhkbPOQoYLZe-Uqvmme-11" vertex="1">
          <mxGeometry y="82" width="160" height="26" as="geometry"/>
        </mxCell>
        <mxCell id="SbhkbPOQoYLZe-Uqvmme-52" value="" style="shape=partialRectangle;top=0;left=0;bottom=0;fillColor=none;align=left;verticalAlign=top;spacingLeft=4;spacingRight=4;overflow=hidden;rotatable=0;points=[];portConstraint=eastwest;part=1;fontSize=12;" parent="SbhkbPOQoYLZe-Uqvmme-51" vertex="1" connectable="0">
          <mxGeometry width="30" height="26" as="geometry"/>
        </mxCell>
        <mxCell id="SbhkbPOQoYLZe-Uqvmme-55" value="Price" style="shape=partialRectangle;top=0;left=0;right=0;bottom=0;align=left;verticalAlign=top;fillColor=none;spacingLeft=34;spacingRight=4;overflow=hidden;rotatable=0;points=[[0,0.5],[1,0.5]];portConstraint=eastwest;dropTarget=0;fontSize=12;" parent="SbhkbPOQoYLZe-Uqvmme-11" vertex="1">
          <mxGeometry y="108" width="160" height="26" as="geometry"/>
        </mxCell>
        <mxCell id="SbhkbPOQoYLZe-Uqvmme-56" value="" style="shape=partialRectangle;top=0;left=0;bottom=0;fillColor=none;align=left;verticalAlign=top;spacingLeft=4;spacingRight=4;overflow=hidden;rotatable=0;points=[];portConstraint=eastwest;part=1;fontSize=12;" parent="SbhkbPOQoYLZe-Uqvmme-55" vertex="1" connectable="0">
          <mxGeometry width="30" height="26" as="geometry"/>
        </mxCell>
        <mxCell id="SbhkbPOQoYLZe-Uqvmme-53" value="Category" style="shape=partialRectangle;top=0;left=0;right=0;bottom=0;align=left;verticalAlign=top;fillColor=none;spacingLeft=34;spacingRight=4;overflow=hidden;rotatable=0;points=[[0,0.5],[1,0.5]];portConstraint=eastwest;dropTarget=0;fontSize=12;" parent="SbhkbPOQoYLZe-Uqvmme-11" vertex="1">
          <mxGeometry y="134" width="160" height="26" as="geometry"/>
        </mxCell>
        <mxCell id="SbhkbPOQoYLZe-Uqvmme-54" value="" style="shape=partialRectangle;top=0;left=0;bottom=0;fillColor=none;align=left;verticalAlign=top;spacingLeft=4;spacingRight=4;overflow=hidden;rotatable=0;points=[];portConstraint=eastwest;part=1;fontSize=12;" parent="SbhkbPOQoYLZe-Uqvmme-53" vertex="1" connectable="0">
          <mxGeometry width="30" height="26" as="geometry"/>
        </mxCell>
        <mxCell id="MDvRXlotbW8Wi4fBUQ2x-1" value="ProductDiscount" style="shape=partialRectangle;top=0;left=0;right=0;bottom=0;align=left;verticalAlign=top;fillColor=none;spacingLeft=34;spacingRight=4;overflow=hidden;rotatable=0;points=[[0,0.5],[1,0.5]];portConstraint=eastwest;dropTarget=0;fontSize=12;" parent="SbhkbPOQoYLZe-Uqvmme-11" vertex="1">
          <mxGeometry y="160" width="160" height="26" as="geometry"/>
        </mxCell>
        <mxCell id="MDvRXlotbW8Wi4fBUQ2x-2" value="" style="shape=partialRectangle;top=0;left=0;bottom=0;fillColor=none;align=left;verticalAlign=top;spacingLeft=4;spacingRight=4;overflow=hidden;rotatable=0;points=[];portConstraint=eastwest;part=1;fontSize=12;" parent="MDvRXlotbW8Wi4fBUQ2x-1" vertex="1" connectable="0">
          <mxGeometry width="30" height="26" as="geometry"/>
        </mxCell>
        <mxCell id="MDvRXlotbW8Wi4fBUQ2x-3" value="InStock" style="shape=partialRectangle;top=0;left=0;right=0;bottom=0;align=left;verticalAlign=top;fillColor=none;spacingLeft=34;spacingRight=4;overflow=hidden;rotatable=0;points=[[0,0.5],[1,0.5]];portConstraint=eastwest;dropTarget=0;fontSize=12;" parent="SbhkbPOQoYLZe-Uqvmme-11" vertex="1">
          <mxGeometry y="186" width="160" height="26" as="geometry"/>
        </mxCell>
        <mxCell id="MDvRXlotbW8Wi4fBUQ2x-4" value="" style="shape=partialRectangle;top=0;left=0;bottom=0;fillColor=none;align=left;verticalAlign=top;spacingLeft=4;spacingRight=4;overflow=hidden;rotatable=0;points=[];portConstraint=eastwest;part=1;fontSize=12;" parent="MDvRXlotbW8Wi4fBUQ2x-3" vertex="1" connectable="0">
          <mxGeometry width="30" height="26" as="geometry"/>
        </mxCell>
        <mxCell id="MDvRXlotbW8Wi4fBUQ2x-5" value="Description" style="shape=partialRectangle;top=0;left=0;right=0;bottom=0;align=left;verticalAlign=top;fillColor=none;spacingLeft=34;spacingRight=4;overflow=hidden;rotatable=0;points=[[0,0.5],[1,0.5]];portConstraint=eastwest;dropTarget=0;fontSize=12;" parent="SbhkbPOQoYLZe-Uqvmme-11" vertex="1">
          <mxGeometry y="212" width="160" height="26" as="geometry"/>
        </mxCell>
        <mxCell id="MDvRXlotbW8Wi4fBUQ2x-6" value="" style="shape=partialRectangle;top=0;left=0;bottom=0;fillColor=none;align=left;verticalAlign=top;spacingLeft=4;spacingRight=4;overflow=hidden;rotatable=0;points=[];portConstraint=eastwest;part=1;fontSize=12;" parent="MDvRXlotbW8Wi4fBUQ2x-5" vertex="1" connectable="0">
          <mxGeometry width="30" height="26" as="geometry"/>
        </mxCell>
        <mxCell id="R3hvSRgiidc4G_vSHDlR-36" value="Brand" style="shape=partialRectangle;top=0;left=0;right=0;bottom=0;align=left;verticalAlign=top;fillColor=none;spacingLeft=34;spacingRight=4;overflow=hidden;rotatable=0;points=[[0,0.5],[1,0.5]];portConstraint=eastwest;dropTarget=0;fontSize=12;" vertex="1" parent="SbhkbPOQoYLZe-Uqvmme-11">
          <mxGeometry y="238" width="160" height="26" as="geometry"/>
        </mxCell>
        <mxCell id="R3hvSRgiidc4G_vSHDlR-37" value="" style="shape=partialRectangle;top=0;left=0;bottom=0;fillColor=none;align=left;verticalAlign=top;spacingLeft=4;spacingRight=4;overflow=hidden;rotatable=0;points=[];portConstraint=eastwest;part=1;fontSize=12;" vertex="1" connectable="0" parent="R3hvSRgiidc4G_vSHDlR-36">
          <mxGeometry width="30" height="26" as="geometry"/>
        </mxCell>
        <mxCell id="SbhkbPOQoYLZe-Uqvmme-22" value="Customer" style="swimlane;fontStyle=0;childLayout=stackLayout;horizontal=1;startSize=26;fillColor=#e0e0e0;horizontalStack=0;resizeParent=1;resizeParentMax=0;resizeLast=0;collapsible=1;marginBottom=0;swimlaneFillColor=#ffffff;align=center;fontSize=14;" parent="--3i5PdiJ5yU9r6fGvb7-1" vertex="1">
          <mxGeometry x="670" y="40" width="160" height="234" as="geometry"/>
        </mxCell>
        <mxCell id="SbhkbPOQoYLZe-Uqvmme-23" value="CustomerId" style="shape=partialRectangle;top=0;left=0;right=0;bottom=1;align=left;verticalAlign=middle;fillColor=none;spacingLeft=34;spacingRight=4;overflow=hidden;rotatable=0;points=[[0,0.5],[1,0.5]];portConstraint=eastwest;dropTarget=0;fontStyle=5;fontSize=12;" parent="SbhkbPOQoYLZe-Uqvmme-22" vertex="1">
          <mxGeometry y="26" width="160" height="30" as="geometry"/>
        </mxCell>
        <mxCell id="SbhkbPOQoYLZe-Uqvmme-24" value="PK" style="shape=partialRectangle;top=0;left=0;bottom=0;fillColor=none;align=left;verticalAlign=middle;spacingLeft=4;spacingRight=4;overflow=hidden;rotatable=0;points=[];portConstraint=eastwest;part=1;fontSize=12;" parent="SbhkbPOQoYLZe-Uqvmme-23" vertex="1" connectable="0">
          <mxGeometry width="30" height="30" as="geometry"/>
        </mxCell>
        <mxCell id="SbhkbPOQoYLZe-Uqvmme-25" value="FirstName" style="shape=partialRectangle;top=0;left=0;right=0;bottom=0;align=left;verticalAlign=top;fillColor=none;spacingLeft=34;spacingRight=4;overflow=hidden;rotatable=0;points=[[0,0.5],[1,0.5]];portConstraint=eastwest;dropTarget=0;fontSize=12;" parent="SbhkbPOQoYLZe-Uqvmme-22" vertex="1">
          <mxGeometry y="56" width="160" height="26" as="geometry"/>
        </mxCell>
        <mxCell id="SbhkbPOQoYLZe-Uqvmme-26" value="" style="shape=partialRectangle;top=0;left=0;bottom=0;fillColor=none;align=left;verticalAlign=top;spacingLeft=4;spacingRight=4;overflow=hidden;rotatable=0;points=[];portConstraint=eastwest;part=1;fontSize=12;" parent="SbhkbPOQoYLZe-Uqvmme-25" vertex="1" connectable="0">
          <mxGeometry width="30" height="26" as="geometry"/>
        </mxCell>
        <mxCell id="SbhkbPOQoYLZe-Uqvmme-27" value="LastName" style="shape=partialRectangle;top=0;left=0;right=0;bottom=0;align=left;verticalAlign=top;fillColor=none;spacingLeft=34;spacingRight=4;overflow=hidden;rotatable=0;points=[[0,0.5],[1,0.5]];portConstraint=eastwest;dropTarget=0;fontSize=12;" parent="SbhkbPOQoYLZe-Uqvmme-22" vertex="1">
          <mxGeometry y="82" width="160" height="26" as="geometry"/>
        </mxCell>
        <mxCell id="SbhkbPOQoYLZe-Uqvmme-28" value="" style="shape=partialRectangle;top=0;left=0;bottom=0;fillColor=none;align=left;verticalAlign=top;spacingLeft=4;spacingRight=4;overflow=hidden;rotatable=0;points=[];portConstraint=eastwest;part=1;fontSize=12;" parent="SbhkbPOQoYLZe-Uqvmme-27" vertex="1" connectable="0">
          <mxGeometry width="30" height="26" as="geometry"/>
        </mxCell>
        <mxCell id="SbhkbPOQoYLZe-Uqvmme-29" value="Username" style="shape=partialRectangle;top=0;left=0;right=0;bottom=0;align=left;verticalAlign=top;fillColor=none;spacingLeft=34;spacingRight=4;overflow=hidden;rotatable=0;points=[[0,0.5],[1,0.5]];portConstraint=eastwest;dropTarget=0;fontSize=12;" parent="SbhkbPOQoYLZe-Uqvmme-22" vertex="1">
          <mxGeometry y="108" width="160" height="22" as="geometry"/>
        </mxCell>
        <mxCell id="SbhkbPOQoYLZe-Uqvmme-30" value="" style="shape=partialRectangle;top=0;left=0;bottom=0;fillColor=none;align=left;verticalAlign=top;spacingLeft=4;spacingRight=4;overflow=hidden;rotatable=0;points=[];portConstraint=eastwest;part=1;fontSize=12;" parent="SbhkbPOQoYLZe-Uqvmme-29" vertex="1" connectable="0">
          <mxGeometry width="30" height="22" as="geometry"/>
        </mxCell>
        <mxCell id="uRX5dzZt_y9ehsKrnz1T-0" value="Password" style="shape=partialRectangle;top=0;left=0;right=0;bottom=0;align=left;verticalAlign=top;fillColor=none;spacingLeft=34;spacingRight=4;overflow=hidden;rotatable=0;points=[[0,0.5],[1,0.5]];portConstraint=eastwest;dropTarget=0;fontSize=12;" parent="SbhkbPOQoYLZe-Uqvmme-22" vertex="1">
          <mxGeometry y="130" width="160" height="26" as="geometry"/>
        </mxCell>
        <mxCell id="uRX5dzZt_y9ehsKrnz1T-1" value="" style="shape=partialRectangle;top=0;left=0;bottom=0;fillColor=none;align=left;verticalAlign=top;spacingLeft=4;spacingRight=4;overflow=hidden;rotatable=0;points=[];portConstraint=eastwest;part=1;fontSize=12;" parent="uRX5dzZt_y9ehsKrnz1T-0" vertex="1" connectable="0">
          <mxGeometry width="30" height="26" as="geometry"/>
        </mxCell>
        <mxCell id="uRX5dzZt_y9ehsKrnz1T-2" value="Address" style="shape=partialRectangle;top=0;left=0;right=0;bottom=0;align=left;verticalAlign=top;fillColor=none;spacingLeft=34;spacingRight=4;overflow=hidden;rotatable=0;points=[[0,0.5],[1,0.5]];portConstraint=eastwest;dropTarget=0;fontSize=12;" parent="SbhkbPOQoYLZe-Uqvmme-22" vertex="1">
          <mxGeometry y="156" width="160" height="26" as="geometry"/>
        </mxCell>
        <mxCell id="uRX5dzZt_y9ehsKrnz1T-3" value="" style="shape=partialRectangle;top=0;left=0;bottom=0;fillColor=none;align=left;verticalAlign=top;spacingLeft=4;spacingRight=4;overflow=hidden;rotatable=0;points=[];portConstraint=eastwest;part=1;fontSize=12;" parent="uRX5dzZt_y9ehsKrnz1T-2" vertex="1" connectable="0">
          <mxGeometry width="30" height="26" as="geometry"/>
        </mxCell>
        <mxCell id="R3hvSRgiidc4G_vSHDlR-18" value="Contact" style="shape=partialRectangle;top=0;left=0;right=0;bottom=0;align=left;verticalAlign=top;fillColor=none;spacingLeft=34;spacingRight=4;overflow=hidden;rotatable=0;points=[[0,0.5],[1,0.5]];portConstraint=eastwest;dropTarget=0;fontSize=12;" vertex="1" parent="SbhkbPOQoYLZe-Uqvmme-22">
          <mxGeometry y="182" width="160" height="26" as="geometry"/>
        </mxCell>
        <mxCell id="R3hvSRgiidc4G_vSHDlR-19" value="" style="shape=partialRectangle;top=0;left=0;bottom=0;fillColor=none;align=left;verticalAlign=top;spacingLeft=4;spacingRight=4;overflow=hidden;rotatable=0;points=[];portConstraint=eastwest;part=1;fontSize=12;" vertex="1" connectable="0" parent="R3hvSRgiidc4G_vSHDlR-18">
          <mxGeometry width="30" height="26" as="geometry"/>
        </mxCell>
        <mxCell id="R3hvSRgiidc4G_vSHDlR-20" value="Email" style="shape=partialRectangle;top=0;left=0;right=0;bottom=0;align=left;verticalAlign=top;fillColor=none;spacingLeft=34;spacingRight=4;overflow=hidden;rotatable=0;points=[[0,0.5],[1,0.5]];portConstraint=eastwest;dropTarget=0;fontSize=12;" vertex="1" parent="SbhkbPOQoYLZe-Uqvmme-22">
          <mxGeometry y="208" width="160" height="26" as="geometry"/>
        </mxCell>
        <mxCell id="R3hvSRgiidc4G_vSHDlR-21" value="" style="shape=partialRectangle;top=0;left=0;bottom=0;fillColor=none;align=left;verticalAlign=top;spacingLeft=4;spacingRight=4;overflow=hidden;rotatable=0;points=[];portConstraint=eastwest;part=1;fontSize=12;" vertex="1" connectable="0" parent="R3hvSRgiidc4G_vSHDlR-20">
          <mxGeometry width="30" height="26" as="geometry"/>
        </mxCell>
        <mxCell id="SbhkbPOQoYLZe-Uqvmme-33" value="Comprises" style="swimlane;fontStyle=0;childLayout=stackLayout;horizontal=1;startSize=26;fillColor=#e0e0e0;horizontalStack=0;resizeParent=1;resizeParentMax=0;resizeLast=0;collapsible=1;marginBottom=0;swimlaneFillColor=#ffffff;align=center;fontSize=14;" parent="--3i5PdiJ5yU9r6fGvb7-1" vertex="1">
          <mxGeometry x="650" y="700" width="160" height="86" as="geometry"/>
        </mxCell>
        <mxCell id="SbhkbPOQoYLZe-Uqvmme-34" value="OrderId" style="shape=partialRectangle;top=0;left=0;right=0;bottom=0;align=left;verticalAlign=middle;fillColor=none;spacingLeft=60;spacingRight=4;overflow=hidden;rotatable=0;points=[[0,0.5],[1,0.5]];portConstraint=eastwest;dropTarget=0;fontStyle=5;fontSize=12;" parent="SbhkbPOQoYLZe-Uqvmme-33" vertex="1">
          <mxGeometry y="26" width="160" height="30" as="geometry"/>
        </mxCell>
        <mxCell id="SbhkbPOQoYLZe-Uqvmme-35" value="PK,FK1" style="shape=partialRectangle;fontStyle=1;top=0;left=0;bottom=0;fillColor=none;align=left;verticalAlign=middle;spacingLeft=4;spacingRight=4;overflow=hidden;rotatable=0;points=[];portConstraint=eastwest;part=1;fontSize=12;" parent="SbhkbPOQoYLZe-Uqvmme-34" vertex="1" connectable="0">
          <mxGeometry width="56" height="30" as="geometry"/>
        </mxCell>
        <mxCell id="SbhkbPOQoYLZe-Uqvmme-36" value="ProductId" style="shape=partialRectangle;top=0;left=0;right=0;bottom=1;align=left;verticalAlign=middle;fillColor=none;spacingLeft=60;spacingRight=4;overflow=hidden;rotatable=0;points=[[0,0.5],[1,0.5]];portConstraint=eastwest;dropTarget=0;fontStyle=5;fontSize=12;" parent="SbhkbPOQoYLZe-Uqvmme-33" vertex="1">
          <mxGeometry y="56" width="160" height="30" as="geometry"/>
        </mxCell>
        <mxCell id="SbhkbPOQoYLZe-Uqvmme-37" value="PK,FK2" style="shape=partialRectangle;fontStyle=1;top=0;left=0;bottom=0;fillColor=none;align=left;verticalAlign=middle;spacingLeft=4;spacingRight=4;overflow=hidden;rotatable=0;points=[];portConstraint=eastwest;part=1;fontSize=12;" parent="SbhkbPOQoYLZe-Uqvmme-36" vertex="1" connectable="0">
          <mxGeometry width="56" height="30" as="geometry"/>
        </mxCell>
        <mxCell id="SbhkbPOQoYLZe-Uqvmme-40" value="Order" style="swimlane;fontStyle=0;childLayout=stackLayout;horizontal=1;startSize=26;fillColor=#e0e0e0;horizontalStack=0;resizeParent=1;resizeParentMax=0;resizeLast=0;collapsible=1;marginBottom=0;swimlaneFillColor=#ffffff;align=center;fontSize=14;" parent="--3i5PdiJ5yU9r6fGvb7-1" vertex="1">
          <mxGeometry x="430" y="320" width="160" height="322" as="geometry"/>
        </mxCell>
        <mxCell id="SbhkbPOQoYLZe-Uqvmme-41" value="OrderId" style="shape=partialRectangle;top=0;left=0;right=0;bottom=1;align=left;verticalAlign=middle;fillColor=none;spacingLeft=34;spacingRight=4;overflow=hidden;rotatable=0;points=[[0,0.5],[1,0.5]];portConstraint=eastwest;dropTarget=0;fontStyle=5;fontSize=12;" parent="SbhkbPOQoYLZe-Uqvmme-40" vertex="1">
          <mxGeometry y="26" width="160" height="30" as="geometry"/>
        </mxCell>
        <mxCell id="SbhkbPOQoYLZe-Uqvmme-42" value="PK" style="shape=partialRectangle;top=0;left=0;bottom=0;fillColor=none;align=left;verticalAlign=middle;spacingLeft=4;spacingRight=4;overflow=hidden;rotatable=0;points=[];portConstraint=eastwest;part=1;fontSize=12;" parent="SbhkbPOQoYLZe-Uqvmme-41" vertex="1" connectable="0">
          <mxGeometry width="30" height="30" as="geometry"/>
        </mxCell>
        <mxCell id="SbhkbPOQoYLZe-Uqvmme-43" value="CustomerId" style="shape=partialRectangle;top=0;left=0;right=0;bottom=0;align=left;verticalAlign=top;fillColor=none;spacingLeft=34;spacingRight=4;overflow=hidden;rotatable=0;points=[[0,0.5],[1,0.5]];portConstraint=eastwest;dropTarget=0;fontSize=12;" parent="SbhkbPOQoYLZe-Uqvmme-40" vertex="1">
          <mxGeometry y="56" width="160" height="26" as="geometry"/>
        </mxCell>
        <mxCell id="SbhkbPOQoYLZe-Uqvmme-44" value="FK" style="shape=partialRectangle;top=0;left=0;bottom=0;fillColor=none;align=left;verticalAlign=top;spacingLeft=4;spacingRight=4;overflow=hidden;rotatable=0;points=[];portConstraint=eastwest;part=1;fontSize=12;" parent="SbhkbPOQoYLZe-Uqvmme-43" vertex="1" connectable="0">
          <mxGeometry width="30" height="26" as="geometry"/>
        </mxCell>
        <mxCell id="SbhkbPOQoYLZe-Uqvmme-45" value="Quantity" style="shape=partialRectangle;top=0;left=0;right=0;bottom=0;align=left;verticalAlign=top;fillColor=none;spacingLeft=34;spacingRight=4;overflow=hidden;rotatable=0;points=[[0,0.5],[1,0.5]];portConstraint=eastwest;dropTarget=0;fontSize=12;" parent="SbhkbPOQoYLZe-Uqvmme-40" vertex="1">
          <mxGeometry y="82" width="160" height="26" as="geometry"/>
        </mxCell>
        <mxCell id="SbhkbPOQoYLZe-Uqvmme-46" value="" style="shape=partialRectangle;top=0;left=0;bottom=0;fillColor=none;align=left;verticalAlign=top;spacingLeft=4;spacingRight=4;overflow=hidden;rotatable=0;points=[];portConstraint=eastwest;part=1;fontSize=12;" parent="SbhkbPOQoYLZe-Uqvmme-45" vertex="1" connectable="0">
          <mxGeometry width="30" height="26" as="geometry"/>
        </mxCell>
        <mxCell id="SbhkbPOQoYLZe-Uqvmme-47" value="Date" style="shape=partialRectangle;top=0;left=0;right=0;bottom=0;align=left;verticalAlign=top;fillColor=none;spacingLeft=34;spacingRight=4;overflow=hidden;rotatable=0;points=[[0,0.5],[1,0.5]];portConstraint=eastwest;dropTarget=0;fontSize=12;" parent="SbhkbPOQoYLZe-Uqvmme-40" vertex="1">
          <mxGeometry y="108" width="160" height="26" as="geometry"/>
        </mxCell>
        <mxCell id="SbhkbPOQoYLZe-Uqvmme-48" value="" style="shape=partialRectangle;top=0;left=0;bottom=0;fillColor=none;align=left;verticalAlign=top;spacingLeft=4;spacingRight=4;overflow=hidden;rotatable=0;points=[];portConstraint=eastwest;part=1;fontSize=12;" parent="SbhkbPOQoYLZe-Uqvmme-47" vertex="1" connectable="0">
          <mxGeometry width="30" height="26" as="geometry"/>
        </mxCell>
        <mxCell id="uXef9IC-dksIuOhNSPdg-4" value="Total" style="shape=partialRectangle;top=0;left=0;right=0;bottom=0;align=left;verticalAlign=top;fillColor=none;spacingLeft=34;spacingRight=4;overflow=hidden;rotatable=0;points=[[0,0.5],[1,0.5]];portConstraint=eastwest;dropTarget=0;fontSize=12;" parent="SbhkbPOQoYLZe-Uqvmme-40" vertex="1">
          <mxGeometry y="134" width="160" height="26" as="geometry"/>
        </mxCell>
        <mxCell id="uXef9IC-dksIuOhNSPdg-5" value="" style="shape=partialRectangle;top=0;left=0;bottom=0;fillColor=none;align=left;verticalAlign=top;spacingLeft=4;spacingRight=4;overflow=hidden;rotatable=0;points=[];portConstraint=eastwest;part=1;fontSize=12;" parent="uXef9IC-dksIuOhNSPdg-4" vertex="1" connectable="0">
          <mxGeometry width="30" height="26" as="geometry"/>
        </mxCell>
        <mxCell id="uXef9IC-dksIuOhNSPdg-6" value="Tax" style="shape=partialRectangle;top=0;left=0;right=0;bottom=0;align=left;verticalAlign=top;fillColor=none;spacingLeft=34;spacingRight=4;overflow=hidden;rotatable=0;points=[[0,0.5],[1,0.5]];portConstraint=eastwest;dropTarget=0;fontSize=12;" parent="SbhkbPOQoYLZe-Uqvmme-40" vertex="1">
          <mxGeometry y="160" width="160" height="26" as="geometry"/>
        </mxCell>
        <mxCell id="uXef9IC-dksIuOhNSPdg-7" value="" style="shape=partialRectangle;top=0;left=0;bottom=0;fillColor=none;align=left;verticalAlign=top;spacingLeft=4;spacingRight=4;overflow=hidden;rotatable=0;points=[];portConstraint=eastwest;part=1;fontSize=12;" parent="uXef9IC-dksIuOhNSPdg-6" vertex="1" connectable="0">
          <mxGeometry width="30" height="26" as="geometry"/>
        </mxCell>
        <mxCell id="uXef9IC-dksIuOhNSPdg-8" value="OrderDiscount" style="shape=partialRectangle;top=0;left=0;right=0;bottom=0;align=left;verticalAlign=top;fillColor=none;spacingLeft=34;spacingRight=4;overflow=hidden;rotatable=0;points=[[0,0.5],[1,0.5]];portConstraint=eastwest;dropTarget=0;fontSize=12;" parent="SbhkbPOQoYLZe-Uqvmme-40" vertex="1">
          <mxGeometry y="186" width="160" height="22" as="geometry"/>
        </mxCell>
        <mxCell id="uXef9IC-dksIuOhNSPdg-9" value="" style="shape=partialRectangle;top=0;left=0;bottom=0;fillColor=none;align=left;verticalAlign=top;spacingLeft=4;spacingRight=4;overflow=hidden;rotatable=0;points=[];portConstraint=eastwest;part=1;fontSize=12;" parent="uXef9IC-dksIuOhNSPdg-8" vertex="1" connectable="0">
          <mxGeometry width="30" height="22" as="geometry"/>
        </mxCell>
        <mxCell id="Yfn7HTdfH4gIZgx2C2T2-0" value="ShippingMethod" style="shape=partialRectangle;top=0;left=0;right=0;bottom=0;align=left;verticalAlign=top;fillColor=none;spacingLeft=34;spacingRight=4;overflow=hidden;rotatable=0;points=[[0,0.5],[1,0.5]];portConstraint=eastwest;dropTarget=0;fontSize=12;" parent="SbhkbPOQoYLZe-Uqvmme-40" vertex="1">
          <mxGeometry y="208" width="160" height="26" as="geometry"/>
        </mxCell>
        <mxCell id="Yfn7HTdfH4gIZgx2C2T2-1" value="" style="shape=partialRectangle;top=0;left=0;bottom=0;fillColor=none;align=left;verticalAlign=top;spacingLeft=4;spacingRight=4;overflow=hidden;rotatable=0;points=[];portConstraint=eastwest;part=1;fontSize=12;" parent="Yfn7HTdfH4gIZgx2C2T2-0" vertex="1" connectable="0">
          <mxGeometry width="30" height="26" as="geometry"/>
        </mxCell>
        <mxCell id="Yfn7HTdfH4gIZgx2C2T2-2" value="ShippingFee" style="shape=partialRectangle;top=0;left=0;right=0;bottom=0;align=left;verticalAlign=top;fillColor=none;spacingLeft=34;spacingRight=4;overflow=hidden;rotatable=0;points=[[0,0.5],[1,0.5]];portConstraint=eastwest;dropTarget=0;fontSize=12;" parent="SbhkbPOQoYLZe-Uqvmme-40" vertex="1">
          <mxGeometry y="234" width="160" height="26" as="geometry"/>
        </mxCell>
        <mxCell id="Yfn7HTdfH4gIZgx2C2T2-3" value="" style="shape=partialRectangle;top=0;left=0;bottom=0;fillColor=none;align=left;verticalAlign=top;spacingLeft=4;spacingRight=4;overflow=hidden;rotatable=0;points=[];portConstraint=eastwest;part=1;fontSize=12;" parent="Yfn7HTdfH4gIZgx2C2T2-2" vertex="1" connectable="0">
          <mxGeometry width="30" height="26" as="geometry"/>
        </mxCell>
        <mxCell id="Yfn7HTdfH4gIZgx2C2T2-4" value="TotalPay" style="shape=partialRectangle;top=0;left=0;right=0;bottom=0;align=left;verticalAlign=top;fillColor=none;spacingLeft=34;spacingRight=4;overflow=hidden;rotatable=0;points=[[0,0.5],[1,0.5]];portConstraint=eastwest;dropTarget=0;fontSize=12;" parent="SbhkbPOQoYLZe-Uqvmme-40" vertex="1">
          <mxGeometry y="260" width="160" height="26" as="geometry"/>
        </mxCell>
        <mxCell id="Yfn7HTdfH4gIZgx2C2T2-5" value="" style="shape=partialRectangle;top=0;left=0;bottom=0;fillColor=none;align=left;verticalAlign=top;spacingLeft=4;spacingRight=4;overflow=hidden;rotatable=0;points=[];portConstraint=eastwest;part=1;fontSize=12;" parent="Yfn7HTdfH4gIZgx2C2T2-4" vertex="1" connectable="0">
          <mxGeometry width="30" height="26" as="geometry"/>
        </mxCell>
        <mxCell id="AAF8Fi5WZkMDooXciNSI-0" value="CardInformation" style="shape=partialRectangle;top=0;left=0;right=0;bottom=0;align=left;verticalAlign=top;fillColor=none;spacingLeft=34;spacingRight=4;overflow=hidden;rotatable=0;points=[[0,0.5],[1,0.5]];portConstraint=eastwest;dropTarget=0;fontSize=12;" parent="SbhkbPOQoYLZe-Uqvmme-40" vertex="1">
          <mxGeometry y="286" width="160" height="26" as="geometry"/>
        </mxCell>
        <mxCell id="AAF8Fi5WZkMDooXciNSI-1" value="" style="shape=partialRectangle;top=0;left=0;bottom=0;fillColor=none;align=left;verticalAlign=top;spacingLeft=4;spacingRight=4;overflow=hidden;rotatable=0;points=[];portConstraint=eastwest;part=1;fontSize=12;" parent="AAF8Fi5WZkMDooXciNSI-0" vertex="1" connectable="0">
          <mxGeometry width="30" height="26" as="geometry"/>
        </mxCell>
        <mxCell id="SbhkbPOQoYLZe-Uqvmme-49" value="" style="shape=partialRectangle;top=0;left=0;right=0;bottom=0;align=left;verticalAlign=top;fillColor=none;spacingLeft=34;spacingRight=4;overflow=hidden;rotatable=0;points=[[0,0.5],[1,0.5]];portConstraint=eastwest;dropTarget=0;fontSize=12;" parent="SbhkbPOQoYLZe-Uqvmme-40" vertex="1">
          <mxGeometry y="312" width="160" height="10" as="geometry"/>
        </mxCell>
        <mxCell id="SbhkbPOQoYLZe-Uqvmme-50" value="" style="shape=partialRectangle;top=0;left=0;bottom=0;fillColor=none;align=left;verticalAlign=top;spacingLeft=4;spacingRight=4;overflow=hidden;rotatable=0;points=[];portConstraint=eastwest;part=1;fontSize=12;" parent="SbhkbPOQoYLZe-Uqvmme-49" vertex="1" connectable="0">
          <mxGeometry width="30" height="10" as="geometry"/>
        </mxCell>
        <mxCell id="uRX5dzZt_y9ehsKrnz1T-4" value="" style="edgeStyle=entityRelationEdgeStyle;fontSize=12;html=1;endArrow=ERoneToMany;exitX=1.013;exitY=0.077;exitDx=0;exitDy=0;entryX=0;entryY=0.25;entryDx=0;entryDy=0;exitPerimeter=0;" parent="--3i5PdiJ5yU9r6fGvb7-1" source="R3hvSRgiidc4G_vSHDlR-4" target="R3hvSRgiidc4G_vSHDlR-26" edge="1">
          <mxGeometry width="100" height="100" relative="1" as="geometry">
            <mxPoint x="240" y="210" as="sourcePoint"/>
            <mxPoint x="240" y="430" as="targetPoint"/>
          </mxGeometry>
        </mxCell>
        <mxCell id="uRX5dzZt_y9ehsKrnz1T-5" value="" style="edgeStyle=entityRelationEdgeStyle;fontSize=12;html=1;endArrow=ERoneToMany;entryX=0.013;entryY=0.867;entryDx=0;entryDy=0;entryPerimeter=0;" parent="--3i5PdiJ5yU9r6fGvb7-1" target="SbhkbPOQoYLZe-Uqvmme-34" edge="1">
          <mxGeometry width="100" height="100" relative="1" as="geometry">
            <mxPoint x="300" y="752" as="sourcePoint"/>
            <mxPoint x="377" y="523" as="targetPoint"/>
          </mxGeometry>
        </mxCell>
        <mxCell id="uRX5dzZt_y9ehsKrnz1T-6" value="" style="edgeStyle=entityRelationEdgeStyle;fontSize=12;html=1;endArrow=ERoneToMany;exitX=1;exitY=0.5;exitDx=0;exitDy=0;entryX=0;entryY=0.5;entryDx=0;entryDy=0;" parent="--3i5PdiJ5yU9r6fGvb7-1" source="SbhkbPOQoYLZe-Uqvmme-29" target="SbhkbPOQoYLZe-Uqvmme-45" edge="1">
          <mxGeometry width="100" height="100" relative="1" as="geometry">
            <mxPoint x="770" y="120" as="sourcePoint"/>
            <mxPoint x="470" y="510" as="targetPoint"/>
          </mxGeometry>
        </mxCell>
        <mxCell id="uRX5dzZt_y9ehsKrnz1T-7" value="" style="edgeStyle=entityRelationEdgeStyle;fontSize=12;html=1;endArrow=ERoneToMany;exitX=1;exitY=0.5;exitDx=0;exitDy=0;entryX=0;entryY=0.25;entryDx=0;entryDy=0;" parent="--3i5PdiJ5yU9r6fGvb7-1" source="uXef9IC-dksIuOhNSPdg-4" target="SbhkbPOQoYLZe-Uqvmme-33" edge="1">
          <mxGeometry width="100" height="100" relative="1" as="geometry">
            <mxPoint x="610" y="670" as="sourcePoint"/>
            <mxPoint x="646" y="710" as="targetPoint"/>
          </mxGeometry>
        </mxCell>
        <mxCell id="R3hvSRgiidc4G_vSHDlR-26" value="Manages" style="swimlane;fontStyle=0;childLayout=stackLayout;horizontal=1;startSize=26;fillColor=#e0e0e0;horizontalStack=0;resizeParent=1;resizeParentMax=0;resizeLast=0;collapsible=1;marginBottom=0;swimlaneFillColor=#ffffff;align=center;fontSize=14;" vertex="1" parent="--3i5PdiJ5yU9r6fGvb7-1">
          <mxGeometry x="150" y="340" width="160" height="86" as="geometry"/>
        </mxCell>
        <mxCell id="R3hvSRgiidc4G_vSHDlR-27" value="ManagerId" style="shape=partialRectangle;top=0;left=0;right=0;bottom=0;align=left;verticalAlign=middle;fillColor=none;spacingLeft=60;spacingRight=4;overflow=hidden;rotatable=0;points=[[0,0.5],[1,0.5]];portConstraint=eastwest;dropTarget=0;fontStyle=5;fontSize=12;" vertex="1" parent="R3hvSRgiidc4G_vSHDlR-26">
          <mxGeometry y="26" width="160" height="30" as="geometry"/>
        </mxCell>
        <mxCell id="R3hvSRgiidc4G_vSHDlR-28" value="PK,FK1" style="shape=partialRectangle;fontStyle=1;top=0;left=0;bottom=0;fillColor=none;align=left;verticalAlign=middle;spacingLeft=4;spacingRight=4;overflow=hidden;rotatable=0;points=[];portConstraint=eastwest;part=1;fontSize=12;" vertex="1" connectable="0" parent="R3hvSRgiidc4G_vSHDlR-27">
          <mxGeometry width="56" height="30" as="geometry"/>
        </mxCell>
        <mxCell id="R3hvSRgiidc4G_vSHDlR-29" value="ProductId" style="shape=partialRectangle;top=0;left=0;right=0;bottom=1;align=left;verticalAlign=middle;fillColor=none;spacingLeft=60;spacingRight=4;overflow=hidden;rotatable=0;points=[[0,0.5],[1,0.5]];portConstraint=eastwest;dropTarget=0;fontStyle=5;fontSize=12;" vertex="1" parent="R3hvSRgiidc4G_vSHDlR-26">
          <mxGeometry y="56" width="160" height="30" as="geometry"/>
        </mxCell>
        <mxCell id="R3hvSRgiidc4G_vSHDlR-30" value="PK,FK2" style="shape=partialRectangle;fontStyle=1;top=0;left=0;bottom=0;fillColor=none;align=left;verticalAlign=middle;spacingLeft=4;spacingRight=4;overflow=hidden;rotatable=0;points=[];portConstraint=eastwest;part=1;fontSize=12;" vertex="1" connectable="0" parent="R3hvSRgiidc4G_vSHDlR-29">
          <mxGeometry width="56" height="30" as="geometry"/>
        </mxCell>
        <mxCell id="R3hvSRgiidc4G_vSHDlR-31" value="Confirms" style="swimlane;fontStyle=0;childLayout=stackLayout;horizontal=1;startSize=26;fillColor=#e0e0e0;horizontalStack=0;resizeParent=1;resizeParentMax=0;resizeLast=0;collapsible=1;marginBottom=0;swimlaneFillColor=#ffffff;align=center;fontSize=14;" vertex="1" parent="--3i5PdiJ5yU9r6fGvb7-1">
          <mxGeometry x="430" y="40" width="160" height="86" as="geometry"/>
        </mxCell>
        <mxCell id="R3hvSRgiidc4G_vSHDlR-32" value="OrderId" style="shape=partialRectangle;top=0;left=0;right=0;bottom=0;align=left;verticalAlign=middle;fillColor=none;spacingLeft=60;spacingRight=4;overflow=hidden;rotatable=0;points=[[0,0.5],[1,0.5]];portConstraint=eastwest;dropTarget=0;fontStyle=5;fontSize=12;" vertex="1" parent="R3hvSRgiidc4G_vSHDlR-31">
          <mxGeometry y="26" width="160" height="30" as="geometry"/>
        </mxCell>
        <mxCell id="R3hvSRgiidc4G_vSHDlR-33" value="PK,FK1" style="shape=partialRectangle;fontStyle=1;top=0;left=0;bottom=0;fillColor=none;align=left;verticalAlign=middle;spacingLeft=4;spacingRight=4;overflow=hidden;rotatable=0;points=[];portConstraint=eastwest;part=1;fontSize=12;" vertex="1" connectable="0" parent="R3hvSRgiidc4G_vSHDlR-32">
          <mxGeometry width="56" height="30" as="geometry"/>
        </mxCell>
        <mxCell id="R3hvSRgiidc4G_vSHDlR-34" value="ManagerId" style="shape=partialRectangle;top=0;left=0;right=0;bottom=1;align=left;verticalAlign=middle;fillColor=none;spacingLeft=60;spacingRight=4;overflow=hidden;rotatable=0;points=[[0,0.5],[1,0.5]];portConstraint=eastwest;dropTarget=0;fontStyle=5;fontSize=12;" vertex="1" parent="R3hvSRgiidc4G_vSHDlR-31">
          <mxGeometry y="56" width="160" height="30" as="geometry"/>
        </mxCell>
        <mxCell id="R3hvSRgiidc4G_vSHDlR-35" value="PK,FK2" style="shape=partialRectangle;fontStyle=1;top=0;left=0;bottom=0;fillColor=none;align=left;verticalAlign=middle;spacingLeft=4;spacingRight=4;overflow=hidden;rotatable=0;points=[];portConstraint=eastwest;part=1;fontSize=12;" vertex="1" connectable="0" parent="R3hvSRgiidc4G_vSHDlR-34">
          <mxGeometry width="56" height="30" as="geometry"/>
        </mxCell>
        <mxCell id="R3hvSRgiidc4G_vSHDlR-39" value="" style="edgeStyle=entityRelationEdgeStyle;fontSize=12;html=1;endArrow=ERoneToMany;entryX=0;entryY=0.25;entryDx=0;entryDy=0;" edge="1" parent="--3i5PdiJ5yU9r6fGvb7-1" target="R3hvSRgiidc4G_vSHDlR-31">
          <mxGeometry width="100" height="100" relative="1" as="geometry">
            <mxPoint x="311" y="92" as="sourcePoint"/>
            <mxPoint x="399" y="333" as="targetPoint"/>
          </mxGeometry>
        </mxCell>
        <mxCell id="R3hvSRgiidc4G_vSHDlR-40" value="" style="edgeStyle=entityRelationEdgeStyle;fontSize=12;html=1;endArrow=ERoneToMany;exitX=1;exitY=0.5;exitDx=0;exitDy=0;entryX=0;entryY=0.5;entryDx=0;entryDy=0;" edge="1" parent="--3i5PdiJ5yU9r6fGvb7-1" source="SbhkbPOQoYLZe-Uqvmme-43" target="R3hvSRgiidc4G_vSHDlR-34">
          <mxGeometry width="100" height="100" relative="1" as="geometry">
            <mxPoint x="332" y="184" as="sourcePoint"/>
            <mxPoint x="170" y="382" as="targetPoint"/>
          </mxGeometry>
        </mxCell>
        <mxCell id="R3hvSRgiidc4G_vSHDlR-38" value="" style="edgeStyle=entityRelationEdgeStyle;fontSize=12;html=1;endArrow=ERoneToMany;exitX=0.994;exitY=0.068;exitDx=0;exitDy=0;entryX=0;entryY=0.5;entryDx=0;entryDy=0;exitPerimeter=0;" edge="1" parent="--3i5PdiJ5yU9r6fGvb7-1" source="SbhkbPOQoYLZe-Uqvmme-11" target="R3hvSRgiidc4G_vSHDlR-27">
          <mxGeometry width="100" height="100" relative="1" as="geometry">
            <mxPoint x="311" y="390" as="sourcePoint"/>
            <mxPoint x="149" y="588" as="targetPoint"/>
          </mxGeometry>
        </mxCell>
      </root>
    </mxGraphModel>
  </diagram>
  <diagram id="w7wMbYGMQJzdQIcV4zoz" name="Page-3">
    <mxGraphModel dx="946" dy="662" grid="1" gridSize="10" guides="1" tooltips="1" connect="1" arrows="1" fold="1" page="1" pageScale="1" pageWidth="850" pageHeight="1100" math="0" shadow="0">
      <root>
        <mxCell id="tV_tQuwIxzkTJbwlohj3-0"/>
        <mxCell id="tV_tQuwIxzkTJbwlohj3-1" parent="tV_tQuwIxzkTJbwlohj3-0"/>
      </root>
    </mxGraphModel>
  </diagram>
</mxfile>
